<svg width="10" height="16" viewBox="0 0 10 16" fill="none" xmlns="http://www.w3.org/2000/svg">
<path d="M9.03607 15.5395L7.53248 15.5395V14.7877L6.78068 14.7877V14.0359L6.02889 14.0359V13.2841L5.27709 13.2841V12.5323L4.52529 12.5323V11.7806L3.7735 11.7806V11.0288L3.0217 11.0288L3.0217 10.277L2.2699 10.277V9.52516L1.51811 9.52516V8.77336L0.766308 8.77336V7.26977L1.51811 7.26977V6.51797L2.2699 6.51797V5.76618L3.0217 5.76618V5.01438L3.7735 5.01438V4.26258L4.52529 4.26258L4.52529 3.51079L5.27709 3.51079V2.75899L6.02889 2.75899V2.00719L6.78068 2.00719V1.2554L7.53248 1.2554V0.503601L9.03607 0.503601V2.00719L8.28428 2.00719V2.75899L7.53248 2.75899V3.51079L6.78068 3.51079V4.26258L6.02889 4.26258V5.01438L5.27709 5.01438L5.27709 5.76618L4.52529 5.76618V6.51797L3.7735 6.51797V7.26977L3.0217 7.26977V8.77336L3.7735 8.77336V9.52516L4.52529 9.52516V10.277L5.27709 10.277V11.0288L6.02889 11.0288V11.7806L6.78068 11.7806V12.5323L7.53248 12.5323V13.2841L8.28428 13.2841V14.0359L9.03607 14.0359V15.5395Z" fill="#737373" style="fill:#737373;fill:color(display-p3 0.4510 0.4510 0.4510);fill-opacity:1;"/>
</svg>
