<svg width="37" height="48" viewBox="0 0 37 48" fill="none" xmlns="http://www.w3.org/2000/svg">
<g filter="url(#filter0_d_4_1612)">
<path d="M35.0436 8.19232H33.0896L33.0896 29.7381H35.0436L35.0436 8.19232Z" fill="#07E79D" style="fill:#07E79D;fill:color(display-p3 0.0290 0.9058 0.6168);fill-opacity:1;"/>
<path d="M33.0944 29.7339H31.0692L31.0692 33.6548H33.0944L33.0944 29.7339Z" fill="#07E79D" style="fill:#07E79D;fill:color(display-p3 0.0290 0.9058 0.6168);fill-opacity:1;"/>
<path d="M31.0692 33.5511L29.1344 33.5511L29.1344 35.4276H31.0692L31.0692 33.5511Z" fill="#07E79D" style="fill:#07E79D;fill:color(display-p3 0.0290 0.9058 0.6168);fill-opacity:1;"/>
<path d="M33.0884 6.23847H29.1675L29.1675 8.19251H33.0884L33.0884 6.23847Z" fill="#07E79D" style="fill:#07E79D;fill:color(display-p3 0.0290 0.9058 0.6168);fill-opacity:1;"/>
<path d="M29.1344 35.4276H27.2317L27.2317 37.5767L29.1344 37.5767L29.1344 35.4276Z" fill="#07E79D" style="fill:#07E79D;fill:color(display-p3 0.0290 0.9058 0.6168);fill-opacity:1;"/>
<path d="M27.2317 37.5781H25.2516L25.251 39.5321H27.2317L27.2317 37.5781Z" fill="#07E79D" style="fill:#07E79D;fill:color(display-p3 0.0290 0.9058 0.6168);fill-opacity:1;"/>
<path d="M29.1725 4.27026L25.3816 4.27858L25.3816 6.15503L29.1725 6.23715L29.1725 4.27026Z" fill="#07E79D" style="fill:#07E79D;fill:color(display-p3 0.0290 0.9058 0.6168);fill-opacity:1;"/>
<path d="M25.251 39.5321L21.2915 39.5558L21.2915 41.4988L25.251 41.4988L25.251 39.5321Z" fill="#07E79D" style="fill:#07E79D;fill:color(display-p3 0.0290 0.9058 0.6168);fill-opacity:1;"/>
<path d="M21.2915 41.4322H15.2252L15.2252 43.4211L21.2915 43.4542L21.2915 41.4322Z" fill="#07E79D" style="fill:#07E79D;fill:color(display-p3 0.0290 0.9058 0.6168);fill-opacity:1;"/>
<path d="M15.2252 39.5558L11.5316 39.5319L11.5316 41.4988L15.2252 41.4322L15.2252 39.5558Z" fill="#07E79D" style="fill:#07E79D;fill:color(display-p3 0.0290 0.9058 0.6168);fill-opacity:1;"/>
<path d="M25.3816 2.31641H11.5316L11.5316 4.27044L25.3816 4.27858L25.3816 2.31641Z" fill="#07E79D" style="fill:#07E79D;fill:color(display-p3 0.0290 0.9058 0.6168);fill-opacity:1;"/>
<path d="M11.5338 37.5781H9.57977L9.57977 39.5321H11.5338L11.5338 37.5781Z" fill="#07E79D" style="fill:#07E79D;fill:color(display-p3 0.0290 0.9058 0.6168);fill-opacity:1;"/>
<path d="M11.534 4.27026H7.62592L7.62592 6.19675H11.534L11.534 4.27026Z" fill="#07E79D" style="fill:#07E79D;fill:color(display-p3 0.0290 0.9058 0.6168);fill-opacity:1;"/>
<path d="M9.57995 35.6098H7.62592L7.62592 37.5767H9.57995L9.57995 35.6098Z" fill="#07E79D" style="fill:#07E79D;fill:color(display-p3 0.0290 0.9058 0.6168);fill-opacity:1;"/>
<path d="M7.62459 33.656H5.6577L5.6577 35.61H7.62459L7.62459 33.656Z" fill="#07E79D" style="fill:#07E79D;fill:color(display-p3 0.0290 0.9058 0.6168);fill-opacity:1;"/>
<path d="M7.62477 6.19675L3.70385 6.23847L3.70385 8.19251H7.62477L7.62477 6.19675Z" fill="#07E79D" style="fill:#07E79D;fill:color(display-p3 0.0290 0.9058 0.6168);fill-opacity:1;"/>
<path d="M5.65788 29.7339H3.70385L3.70385 33.6548H5.65788L5.65788 29.7339Z" fill="#07E79D" style="fill:#07E79D;fill:color(display-p3 0.0290 0.9058 0.6168);fill-opacity:1;"/>
<path d="M3.70385 8.19251L1.75 8.19232L1.75 29.7381H3.70403L3.70385 8.19251Z" fill="#07E79D" style="fill:#07E79D;fill:color(display-p3 0.0290 0.9058 0.6168);fill-opacity:1;"/>
<path d="M11.534 6.19675L11.5316 4.27044L25.3816 4.27858L25.3816 6.15503L29.1675 6.23715L29.1675 8.19251L33.0896 8.19232L33.0896 29.7381L31.0692 29.7411L31.0692 33.5511L29.1344 33.5511L29.1344 35.4276H27.2317L27.2317 37.5781H25.2516L25.251 39.5321L21.2915 39.5558L21.2915 41.4322H15.2252L15.2252 39.5558L11.5338 39.5321L11.5338 37.5781L9.57995 37.5767L9.57995 35.6098H7.62592L7.62459 33.656L5.65788 33.6548L5.65788 29.7339L3.70403 29.7381L3.70385 8.19251H7.62477L7.62592 6.19675H11.534Z" fill="#004D36" style="fill:#004D36;fill:color(display-p3 0.0000 0.3033 0.2123);fill-opacity:1;"/>
</g>
<path d="M11.5694 15.2734L8.80192 15.2734L8.80192 10.1215L9.48885 10.1215L9.48885 14.6658L11.5694 14.6658L11.5694 15.2734ZM12.7714 10.1215L15.7437 10.1215L15.7437 10.7291L13.4583 10.7291L13.4583 12.3408L15.4135 12.3408L15.4135 12.9484L13.4583 12.9484L13.4583 14.6658L15.7437 14.6658L15.7437 15.2734L12.7714 15.2734L12.7714 10.1215ZM19.1958 15.3131L18.2381 15.3131L16.818 10.1215L17.5577 10.1215L18.7202 14.5403L19.8761 10.1215L20.6159 10.1215L19.1958 15.3131ZM21.8715 10.1215L24.8438 10.1215L24.8438 10.7291L22.5584 10.7291L22.5584 12.3408L24.5135 12.3408L24.5135 12.9484L22.5584 12.9484L22.5584 14.6658L24.8438 14.6658L24.8438 15.2734L21.8715 15.2734L21.8715 10.1215ZM28.9762 15.2734L26.2086 15.2734L26.2086 10.1215L26.8956 10.1215L26.8956 14.6658L28.9762 14.6658L28.9762 15.2734Z" fill="white" style="fill:white;fill-opacity:1;"/>
<path d="M14.9766 36.3128L14.9766 34.2113H17.0781L17.0781 23.672H14.9766L14.9766 21.5705H17.0781L17.0781 19.4531L21.297 19.4531L21.297 34.2113H23.3985L23.3985 36.3128H14.9766Z" fill="white" style="fill:white;fill-opacity:1;"/>
<defs>
<filter id="filter0_d_4_1612" x="1.75" y="2.31641" width="33.2936" height="44.0753" filterUnits="userSpaceOnUse" color-interpolation-filters="sRGB">
<feFlood flood-opacity="0" result="BackgroundImageFix"/>
<feColorMatrix in="SourceAlpha" type="matrix" values="0 0 0 0 0 0 0 0 0 0 0 0 0 0 0 0 0 0 127 0" result="hardAlpha"/>
<feOffset dy="2.9376"/>
<feComposite in2="hardAlpha" operator="out"/>
<feColorMatrix type="matrix" values="0 0 0 0 0.878431 0 0 0 0 0.45098 0 0 0 0 0.854902 0 0 0 1 0"/>
<feBlend mode="normal" in2="BackgroundImageFix" result="effect1_dropShadow_4_1612"/>
<feBlend mode="normal" in="SourceGraphic" in2="effect1_dropShadow_4_1612" result="shape"/>
</filter>
</defs>
</svg>
