<svg width="12" height="9" viewBox="0 0 12 9" fill="none" xmlns="http://www.w3.org/2000/svg">
<path d="M11.672 0.873138V2.02514H11.096V2.60114H10.52V3.17714H9.94398V3.75314H9.36798V4.32914H8.79198V4.90514H8.21598V5.48114H7.63998V6.05714H7.06398V6.63314H6.48798V7.20914H5.91198V7.78514H5.33598V8.36114H4.75998V8.93714H3.60798V8.36114H3.03198V7.78514H2.45598V7.20914H1.87998V6.63314H1.30398V6.05714H0.727978V5.48114H0.151978V4.32914H1.30398V4.90514H1.87998V5.48114H2.45598V6.05714H3.03198V6.63314H3.60798V7.20914H4.75998V6.63314H5.33598V6.05714H5.91198V5.48114H6.48798V4.90514H7.06398V4.32914H7.63998V3.75314H8.21598V3.17714H8.79198V2.60114H9.36798V2.02514H9.94398V1.44914H10.52V0.873138H11.672Z" fill="#07E79D" style="fill:#07E79D;fill:color(display-p3 0.0290 0.9058 0.6168);fill-opacity:1;"/>
</svg>
