<svg width="20" height="20" viewBox="0 0 20 20" fill="none" xmlns="http://www.w3.org/2000/svg">
<g clip-path="url(#clip0_4_1396)">
<path d="M19.5164 13.3203H18.5664V18.0828H19.5164V13.3203Z" fill="#A3A3A3" style="fill:#A3A3A3;fill:color(display-p3 0.6392 0.6392 0.6392);fill-opacity:1;"/>
<path d="M18.5695 18.0859H17.6133V19.0422H18.5695V18.0859Z" fill="#A3A3A3" style="fill:#A3A3A3;fill:color(display-p3 0.6392 0.6392 0.6392);fill-opacity:1;"/>
<path d="M18.5695 12.3711H17.6133V13.3211H18.5695V12.3711Z" fill="#A3A3A3" style="fill:#A3A3A3;fill:color(display-p3 0.6392 0.6392 0.6392);fill-opacity:1;"/>
<path d="M18.5695 3.79688H17.6133V6.65938H18.5695V3.79688Z" fill="#A3A3A3" style="fill:#A3A3A3;fill:color(display-p3 0.6392 0.6392 0.6392);fill-opacity:1;"/>
<path d="M17.6062 19.043H16.6562V19.993H17.6062V19.043Z" fill="#A3A3A3" style="fill:#A3A3A3;fill:color(display-p3 0.6392 0.6392 0.6392);fill-opacity:1;"/>
<path d="M17.6062 11.4219H16.6562V12.3781H17.6062V11.4219Z" fill="#A3A3A3" style="fill:#A3A3A3;fill:color(display-p3 0.6392 0.6392 0.6392);fill-opacity:1;"/>
<path d="M12.8547 10.4703V6.66406H11.8984V11.4203H16.6609V10.4703H12.8547Z" fill="#A3A3A3" style="fill:#A3A3A3;fill:color(display-p3 0.6392 0.6392 0.6392);fill-opacity:1;"/>
<path d="M17.6102 6.66406H14.7539V7.61406H17.6102V6.66406Z" fill="#A3A3A3" style="fill:#A3A3A3;fill:color(display-p3 0.6392 0.6392 0.6392);fill-opacity:1;"/>
<path d="M17.6102 2.84766H14.7539V3.79766H17.6102V2.84766Z" fill="#A3A3A3" style="fill:#A3A3A3;fill:color(display-p3 0.6392 0.6392 0.6392);fill-opacity:1;"/>
<path d="M15.7102 12.3711H14.7539V15.2273H15.7102V12.3711Z" fill="#A3A3A3" style="fill:#A3A3A3;fill:color(display-p3 0.6392 0.6392 0.6392);fill-opacity:1;"/>
<path d="M14.7508 3.79688H13.8008V6.65938H14.7508V3.79688Z" fill="#A3A3A3" style="fill:#A3A3A3;fill:color(display-p3 0.6392 0.6392 0.6392);fill-opacity:1;"/>
<path d="M13.8017 -0.0078125H12.8517V0.942188H13.8017V-0.0078125Z" fill="#A3A3A3" style="fill:#A3A3A3;fill:color(display-p3 0.6392 0.6392 0.6392);fill-opacity:1;"/>
<path d="M12.8546 12.3712H11.8983V15.2275H12.8546V12.3712Z" fill="#A3A3A3" style="fill:#A3A3A3;fill:color(display-p3 0.6392 0.6392 0.6392);fill-opacity:1;"/>
<path d="M12.8547 0.941406H11.8984V1.89766H12.8547V0.941406Z" fill="#A3A3A3" style="fill:#A3A3A3;fill:color(display-p3 0.6392 0.6392 0.6392);fill-opacity:1;"/>
<path d="M11.8984 5.70312H9.99219V6.65937H11.8984V5.70312Z" fill="#A3A3A3" style="fill:#A3A3A3;fill:color(display-p3 0.6392 0.6392 0.6392);fill-opacity:1;"/>
<path d="M9.98906 18.0859H9.03906V19.9922H9.98906V18.0859Z" fill="#A3A3A3" style="fill:#A3A3A3;fill:color(display-p3 0.6392 0.6392 0.6392);fill-opacity:1;"/>
<path d="M9.04297 11.4203H7.13672V12.3766H9.04297V14.2828H9.99297V6.66406H9.04297V11.4203Z" fill="#A3A3A3" style="fill:#A3A3A3;fill:color(display-p3 0.6392 0.6392 0.6392);fill-opacity:1;"/>
<path d="M9.98906 -0.0078125H9.03906V1.89844H9.98906V-0.0078125Z" fill="#A3A3A3" style="fill:#A3A3A3;fill:color(display-p3 0.6392 0.6392 0.6392);fill-opacity:1;"/>
<path d="M9.04766 17.1367H8.09766V18.0867H9.04766V17.1367Z" fill="#A3A3A3" style="fill:#A3A3A3;fill:color(display-p3 0.6392 0.6392 0.6392);fill-opacity:1;"/>
<path d="M8.09297 16.1758H7.13672V17.132H8.09297V16.1758Z" fill="#A3A3A3" style="fill:#A3A3A3;fill:color(display-p3 0.6392 0.6392 0.6392);fill-opacity:1;"/>
<path d="M8.09297 3.79766H7.13672V6.66016H8.09297V5.70391H9.04297V4.75391H11.8992V3.79766H10.9492V2.84766H8.09297V3.79766Z" fill="#A3A3A3" style="fill:#A3A3A3;fill:color(display-p3 0.6392 0.6392 0.6392);fill-opacity:1;"/>
<path d="M7.13359 12.3711H6.18359V16.1773H7.13359V12.3711Z" fill="#A3A3A3" style="fill:#A3A3A3;fill:color(display-p3 0.6392 0.6392 0.6392);fill-opacity:1;"/>
<path d="M7.13359 0.941406H6.18359V1.89766H7.13359V0.941406Z" fill="#A3A3A3" style="fill:#A3A3A3;fill:color(display-p3 0.6392 0.6392 0.6392);fill-opacity:1;"/>
<path d="M6.18047 -0.0078125H5.23047V0.942188H6.18047V-0.0078125Z" fill="#A3A3A3" style="fill:#A3A3A3;fill:color(display-p3 0.6392 0.6392 0.6392);fill-opacity:1;"/>
<path d="M5.23359 11.4219H4.27734V14.2844H5.23359V11.4219Z" fill="#A3A3A3" style="fill:#A3A3A3;fill:color(display-p3 0.6392 0.6392 0.6392);fill-opacity:1;"/>
<path d="M5.23359 3.79688H4.27734V6.65938H5.23359V3.79688Z" fill="#A3A3A3" style="fill:#A3A3A3;fill:color(display-p3 0.6392 0.6392 0.6392);fill-opacity:1;"/>
<path d="M4.27812 14.2812H1.42188V15.2312H4.27812V14.2812Z" fill="#A3A3A3" style="fill:#A3A3A3;fill:color(display-p3 0.6392 0.6392 0.6392);fill-opacity:1;"/>
<path d="M4.27812 10.4688H1.42188V11.4188H4.27812V10.4688Z" fill="#A3A3A3" style="fill:#A3A3A3;fill:color(display-p3 0.6392 0.6392 0.6392);fill-opacity:1;"/>
<path d="M4.27812 6.66406H1.42188V7.61406H4.27812V6.66406Z" fill="#A3A3A3" style="fill:#A3A3A3;fill:color(display-p3 0.6392 0.6392 0.6392);fill-opacity:1;"/>
<path d="M4.27812 2.84766H1.42188V3.79766H4.27812V2.84766Z" fill="#A3A3A3" style="fill:#A3A3A3;fill:color(display-p3 0.6392 0.6392 0.6392);fill-opacity:1;"/>
<path d="M1.42266 11.4219H0.472656V14.2844H1.42266V11.4219Z" fill="#A3A3A3" style="fill:#A3A3A3;fill:color(display-p3 0.6392 0.6392 0.6392);fill-opacity:1;"/>
<path d="M1.42266 3.79688H0.472656V6.65938H1.42266V3.79688Z" fill="#A3A3A3" style="fill:#A3A3A3;fill:color(display-p3 0.6392 0.6392 0.6392);fill-opacity:1;"/>
</g>
<defs>
<clipPath id="clip0_4_1396">
<rect width="20" height="20" fill="white" style="fill:white;fill-opacity:1;"/>
</clipPath>
</defs>
</svg>
