<svg width="20" height="21" viewBox="0 0 20 21" fill="none" xmlns="http://www.w3.org/2000/svg">
<path d="M2.45898 1.24175H17.6965V2.198H16.7465V3.148H17.6965V5.05425H18.6527V19.3417H19.6027V4.10425H18.6527V1.24175H19.6027V0.291748H2.45898V1.24175Z" fill="#737373" style="fill:#737373;fill:color(display-p3 0.4510 0.4510 0.4510);fill-opacity:1;"/>
<path d="M4.36523 19.3427V5.05522H10.0777V4.10522H2.45898V5.05522H3.41523V19.3427H2.45898V20.2927H18.6527L18.6527 19.3417L4.36523 19.3427Z" fill="#737373" style="fill:#737373;fill:color(display-p3 0.4510 0.4510 0.4510);fill-opacity:1;"/>
<path d="M15.7998 6.95854H14.8436V4.10229H13.8936V3.14604H14.8436V2.19604H10.0811V3.14604H11.0373V4.10229H11.9873V13.621H12.9373V12.671H13.8936V11.721H14.8436V12.671H15.7998V13.621H16.7498V4.10229H15.7998V6.95854Z" fill="#737373" style="fill:#737373;fill:color(display-p3 0.4510 0.4510 0.4510);fill-opacity:1;"/>
<path d="M6.20432 16.9407L7.14409 16.8017L7.28317 17.7414L8.22294 17.6023L8.36294 18.5483L9.30889 18.4083L9.16888 17.4623L10.1086 17.3232L9.96956 16.3835L10.9093 16.2444L10.7693 15.2984L11.7153 15.1584L11.4371 13.2789L10.4911 13.4189L10.3511 12.473L8.47161 12.7511L8.61162 13.6971L7.66567 13.8371L7.52567 12.8911L5.64614 13.1693L5.78614 14.1153L4.8402 14.2553L5.11837 16.1348L6.06432 15.9948L6.20432 16.9407Z" fill="#737373" style="fill:#737373;fill:color(display-p3 0.4510 0.4510 0.4510);fill-opacity:1;"/>
<path d="M15.798 3.14819H14.8418V4.10444H15.798V3.14819Z" fill="#737373" style="fill:#737373;fill:color(display-p3 0.4510 0.4510 0.4510);fill-opacity:1;"/>
<path d="M9.12852 2.19604H3.41602V3.14605H9.12852V2.19604Z" fill="#737373" style="fill:#737373;fill:color(display-p3 0.4510 0.4510 0.4510);fill-opacity:1;"/>
<path d="M2.46172 18.3875H1.51172V19.3437H2.46172V18.3875Z" fill="#737373" style="fill:#737373;fill:color(display-p3 0.4510 0.4510 0.4510);fill-opacity:1;"/>
<path d="M2.46172 1.2439H1.51172V2.20015H2.46172V1.2439Z" fill="#737373" style="fill:#737373;fill:color(display-p3 0.4510 0.4510 0.4510);fill-opacity:1;"/>
<path d="M1.51094 4.10229H2.46094V3.14604H1.51094V2.19604H0.554688V18.3835H1.51094V4.10229Z" fill="#737373" style="fill:#737373;fill:color(display-p3 0.4510 0.4510 0.4510);fill-opacity:1;"/>
</svg>
