<svg width="23" height="23" viewBox="0 0 23 23" fill="none" xmlns="http://www.w3.org/2000/svg">
<path d="M23.201 8.7552H22.1166V14.1559H23.201V8.7552Z" fill="#07E79D" style="fill:#07E79D;fill:color(display-p3 0.0290 0.9058 0.6168);fill-opacity:1;"/>
<path d="M21.0387 2.27497V0.113281H19.9614V1.19058H18.877V2.27497H17.7997V5.51396H21.0387V4.43666H22.116V3.35227H23.2004V2.27497H21.0387Z" fill="#07E79D" style="fill:#07E79D;fill:color(display-p3 0.0290 0.9058 0.6168);fill-opacity:1;"/>
<path d="M22.1228 14.1514H21.0455V16.3131H22.1228V14.1514Z" fill="#07E79D" style="fill:#07E79D;fill:color(display-p3 0.0290 0.9058 0.6168);fill-opacity:1;"/>
<path d="M22.1228 6.59271H21.0455V8.75439H22.1228V6.59271Z" fill="#07E79D" style="fill:#07E79D;fill:color(display-p3 0.0290 0.9058 0.6168);fill-opacity:1;"/>
<path d="M21.0435 16.3139H19.9662V18.4755H21.0435V16.3139Z" fill="#07E79D" style="fill:#07E79D;fill:color(display-p3 0.0290 0.9058 0.6168);fill-opacity:1;"/>
<path d="M19.9633 18.4804H18.8789V19.5577H19.9633V18.4804Z" fill="#07E79D" style="fill:#07E79D;fill:color(display-p3 0.0290 0.9058 0.6168);fill-opacity:1;"/>
<path d="M18.8751 19.5556H16.7205V20.6329H18.8751V19.5556Z" fill="#07E79D" style="fill:#07E79D;fill:color(display-p3 0.0290 0.9058 0.6168);fill-opacity:1;"/>
<path d="M17.7978 5.5175H16.7205V6.5948H17.7978V5.5175Z" fill="#07E79D" style="fill:#07E79D;fill:color(display-p3 0.0290 0.9058 0.6168);fill-opacity:1;"/>
<path d="M16.7256 6.59271H15.6412V7.67709H16.7256V6.59271Z" fill="#07E79D" style="fill:#07E79D;fill:color(display-p3 0.0290 0.9058 0.6168);fill-opacity:1;"/>
<path d="M16.7237 20.6348H14.562V21.7192H16.7237V20.6348Z" fill="#07E79D" style="fill:#07E79D;fill:color(display-p3 0.0290 0.9058 0.6168);fill-opacity:1;"/>
<path d="M15.6393 9.83846H14.562V13.0774H15.6393V9.83846Z" fill="#07E79D" style="fill:#07E79D;fill:color(display-p3 0.0290 0.9058 0.6168);fill-opacity:1;"/>
<path d="M15.6393 7.67597H14.562V8.75327H15.6393V7.67597Z" fill="#07E79D" style="fill:#07E79D;fill:color(display-p3 0.0290 0.9058 0.6168);fill-opacity:1;"/>
<path d="M16.7237 1.18849H14.562V2.27287H16.7237V1.18849Z" fill="#07E79D" style="fill:#07E79D;fill:color(display-p3 0.0290 0.9058 0.6168);fill-opacity:1;"/>
<path d="M14.5672 13.0762H13.4828V14.1535H14.5672V13.0762Z" fill="#07E79D" style="fill:#07E79D;fill:color(display-p3 0.0290 0.9058 0.6168);fill-opacity:1;"/>
<path d="M14.5672 8.7552H13.4828V9.83959H14.5672V8.7552Z" fill="#07E79D" style="fill:#07E79D;fill:color(display-p3 0.0290 0.9058 0.6168);fill-opacity:1;"/>
<path d="M14.5665 21.7181H9.16584V22.7954H14.5665V21.7181Z" fill="#07E79D" style="fill:#07E79D;fill:color(display-p3 0.0290 0.9058 0.6168);fill-opacity:1;"/>
<path d="M13.4808 9.83846H12.4035V10.9158H13.4808V9.83846Z" fill="#07E79D" style="fill:#07E79D;fill:color(display-p3 0.0290 0.9058 0.6168);fill-opacity:1;"/>
<path d="M13.4841 14.1514H10.2451V15.2287H13.4841V14.1514Z" fill="#07E79D" style="fill:#07E79D;fill:color(display-p3 0.0290 0.9058 0.6168);fill-opacity:1;"/>
<path d="M12.4016 10.9137H11.3243V11.991H12.4016V10.9137Z" fill="#07E79D" style="fill:#07E79D;fill:color(display-p3 0.0290 0.9058 0.6168);fill-opacity:1;"/>
<path d="M13.4841 7.67597H10.2451V8.75327H13.4841V7.67597Z" fill="#07E79D" style="fill:#07E79D;fill:color(display-p3 0.0290 0.9058 0.6168);fill-opacity:1;"/>
<path d="M14.5665 0.113281H9.16584V1.19058H14.5665V0.113281Z" fill="#07E79D" style="fill:#07E79D;fill:color(display-p3 0.0290 0.9058 0.6168);fill-opacity:1;"/>
<path d="M10.2431 13.0762H9.16584V14.1535H10.2431V13.0762Z" fill="#07E79D" style="fill:#07E79D;fill:color(display-p3 0.0290 0.9058 0.6168);fill-opacity:1;"/>
<path d="M10.2431 8.7552H9.16584V9.83959H10.2431V8.7552Z" fill="#07E79D" style="fill:#07E79D;fill:color(display-p3 0.0290 0.9058 0.6168);fill-opacity:1;"/>
<path d="M9.16906 20.6348H7.00738V21.7192H9.16906V20.6348Z" fill="#07E79D" style="fill:#07E79D;fill:color(display-p3 0.0290 0.9058 0.6168);fill-opacity:1;"/>
<path d="M9.16294 9.83846H8.07856V13.0774H9.16294V9.83846Z" fill="#07E79D" style="fill:#07E79D;fill:color(display-p3 0.0290 0.9058 0.6168);fill-opacity:1;"/>
<path d="M9.16906 1.18849H7.00738V2.27287H9.16906V1.18849Z" fill="#07E79D" style="fill:#07E79D;fill:color(display-p3 0.0290 0.9058 0.6168);fill-opacity:1;"/>
<path d="M7.00255 19.5556H4.84086V20.6329H7.00255V19.5556Z" fill="#07E79D" style="fill:#07E79D;fill:color(display-p3 0.0290 0.9058 0.6168);fill-opacity:1;"/>
<path d="M7.00255 2.27175H4.84086V3.34905H7.00255V2.27175Z" fill="#07E79D" style="fill:#07E79D;fill:color(display-p3 0.0290 0.9058 0.6168);fill-opacity:1;"/>
<path d="M5.92331 8.75165H7.00061V6.58997H9.1623V5.51267H15.6403V4.43537H14.563V3.35098H9.1623V4.43537H7.00061V5.51267H5.92331V6.58997H4.83892V8.75165H3.76163V14.1523H4.83892V16.314H5.92331V17.3913H7.00061V18.4757H9.1623V19.553H14.563V18.4757H16.7247V17.3913H17.802V16.314H18.8793V14.1523H19.9636V8.75165H18.8793V7.67436H17.802V14.1523H16.7247V16.314H15.6403V17.3913H9.1623V16.314H7.00061V14.1523H5.92331V8.75165Z" fill="#07E79D" style="fill:#07E79D;fill:color(display-p3 0.0290 0.9058 0.6168);fill-opacity:1;"/>
<path d="M4.83892 18.4804H3.76163V19.5577H4.83892V18.4804Z" fill="#07E79D" style="fill:#07E79D;fill:color(display-p3 0.0290 0.9058 0.6168);fill-opacity:1;"/>
<path d="M4.83892 3.35098H3.76163V4.43537H4.83892V3.35098Z" fill="#07E79D" style="fill:#07E79D;fill:color(display-p3 0.0290 0.9058 0.6168);fill-opacity:1;"/>
<path d="M3.75969 16.3139H2.68239V18.4755H3.75969V16.3139Z" fill="#07E79D" style="fill:#07E79D;fill:color(display-p3 0.0290 0.9058 0.6168);fill-opacity:1;"/>
<path d="M3.75969 4.44229H2.68239V6.59689H3.75969V4.44229Z" fill="#07E79D" style="fill:#07E79D;fill:color(display-p3 0.0290 0.9058 0.6168);fill-opacity:1;"/>
<path d="M2.68755 14.1514H1.60316V16.3131H2.68755V14.1514Z" fill="#07E79D" style="fill:#07E79D;fill:color(display-p3 0.0290 0.9058 0.6168);fill-opacity:1;"/>
<path d="M2.68755 6.59271H1.60316V8.75439H2.68755V6.59271Z" fill="#07E79D" style="fill:#07E79D;fill:color(display-p3 0.0290 0.9058 0.6168);fill-opacity:1;"/>
<path d="M1.60123 8.7552H0.523926V14.1559H1.60123V8.7552Z" fill="#07E79D" style="fill:#07E79D;fill:color(display-p3 0.0290 0.9058 0.6168);fill-opacity:1;"/>
</svg>
