<svg width="26" height="27" viewBox="0 0 26 27" fill="none" xmlns="http://www.w3.org/2000/svg">
<path d="M23.4911 11.0364L23.4911 9.86971H22.3244L22.3244 7.53638H23.4911L23.4911 5.20304H22.3244L22.3244 4.03638H21.1577L21.1577 2.86971H18.8244L18.8244 4.03638H16.491L16.491 2.86971H15.3244L15.3244 0.536377L10.6577 0.536377L10.6577 2.86971H9.49105L9.49105 4.03638H7.15772L7.15772 2.86971H4.82438L4.82438 4.03638H3.65772L3.65772 5.20304H2.49105L2.49105 7.53638H3.65772L3.65772 9.86971H2.49105L2.49105 11.0364H0.157715L0.157715 15.703H2.49105L2.49105 16.8697H3.65772L3.65772 19.203H2.49105L2.49105 21.5364H3.65772L3.65772 22.703H4.82438L4.82438 23.8697H7.15772L7.15772 22.703H9.49105L9.49105 23.8697H10.6577L10.6577 26.203H15.3244L15.3244 23.8697H16.491L16.491 22.703H18.8244L18.8244 23.8697H21.1577L21.1577 22.703H22.3244L22.3244 21.5364H23.4911L23.4911 19.203H22.3244L22.3244 16.8697H23.4911L23.4911 15.703H25.8244L25.8244 11.0364H23.4911ZM10.6577 11.0364L10.6577 9.86971H15.3244L15.3244 11.0364H16.491L16.491 15.703H15.3244L15.3244 16.8697H10.6577L10.6577 15.703H9.49105L9.49105 11.0364H10.6577Z" fill="#D4D4D4" style="fill:#D4D4D4;fill:color(display-p3 0.8314 0.8314 0.8314);fill-opacity:1;"/>
</svg>
