<svg width="25" height="27" viewBox="0 0 25 27" fill="none" xmlns="http://www.w3.org/2000/svg">
<path d="M22.2099 9.77754L22.2099 8.58004H23.4074L23.4074 6.18503H24.6049L24.6049 3.79002H23.4074L23.4074 1.39501H22.2099L22.2099 0.19751L16.2223 0.19751L16.2223 1.39501H15.0248L15.0248 3.79002H13.8273L13.8273 6.18503H12.6298L12.6298 7.38254H11.4323L11.4323 8.58004H10.2348L10.2348 9.77754H9.03732L9.03732 8.58004H3.04979L3.04979 9.77754H1.85229L1.85229 12.1726H0.654785L0.654785 14.5676H1.85229L1.85229 16.9626H3.04979L3.04979 18.1601H9.03732L9.03732 16.9626H10.2348L10.2348 18.1601H11.4323L11.4323 19.3576H12.6298L12.6298 20.5551H13.8273L13.8273 22.9501H15.0248L15.0248 25.3451H16.2223L16.2223 26.5426H22.2099L22.2099 25.3451H23.4074L23.4074 22.9501H24.6049L24.6049 20.5551H23.4074L23.4074 18.1601H22.2099L22.2099 16.9626H16.2223L16.2223 18.1601H13.8273L13.8273 16.9626H12.6298L12.6298 15.7651H11.4323L11.4323 10.975H12.6298L12.6298 9.77754H13.8273L13.8273 8.58004H16.2223L16.2223 9.77754H22.2099ZM9.03732 14.5676H7.83981L7.83981 15.7651H4.2473L4.2473 14.5676H3.04979L3.04979 12.1726H4.2473L4.2473 10.975H7.83981L7.83981 12.1726H9.03732L9.03732 14.5676ZM16.2223 20.5551H17.4198L17.4198 19.3576H21.0124L21.0124 20.5551H22.2099L22.2099 22.9501H21.0124L21.0124 24.1476H17.4198L17.4198 22.9501H16.2223L16.2223 20.5551ZM16.2223 3.79002H17.4198L17.4198 2.59252H21.0124L21.0124 3.79002H22.2099L22.2099 6.18503H21.0124L21.0124 7.38254H17.4198L17.4198 6.18503H16.2223L16.2223 3.79002Z" fill="#D4D4D4" style="fill:#D4D4D4;fill:color(display-p3 0.8314 0.8314 0.8314);fill-opacity:1;"/>
</svg>
