<svg width="21" height="22" viewBox="0 0 21 22" fill="none" xmlns="http://www.w3.org/2000/svg">
<g clip-path="url(#clip0_1457_5719)">
<g clip-path="url(#clip1_1457_5719)">
<path d="M17.1517 7.25204H16.4588L16.4588 6.53976H15.7613L15.7613 5.8228H15.0684L15.0684 6.53976H14.3755L14.3755 7.25204H15.0684L15.0684 7.96431H15.7613L15.7613 8.68128H16.4588L16.4588 9.39355H17.1517L17.1517 8.68128H17.8492L17.8492 7.96431H18.5422L18.5422 7.25204H19.2351L19.2351 6.53976H19.9326L19.9326 5.8228H20.6255L20.6255 5.11052H19.9326L19.9326 4.39355H19.2351L19.2351 5.11052H18.5422L18.5422 5.8228H17.8492L17.8492 6.53976H17.1517L17.1517 7.25204Z" fill="#58A9DF" style="fill:#58A9DF;fill:color(display-p3 0.3451 0.6627 0.8745);fill-opacity:1;"/>
</g>
<path d="M11.3726 5.8877L11.3726 8.5127H10.4976L10.4976 10.2627H8.74756L8.74756 11.1377H6.12256L6.12256 10.2627H4.37256L4.37256 8.5127H3.49756L3.49756 5.8877H4.37256L4.37256 4.1377H6.12256L6.12256 3.2627H8.74756L8.74756 4.1377H10.4976L10.4976 5.8877H11.3726Z" fill="#58A9DF" style="fill:#58A9DF;fill:color(display-p3 0.3451 0.6627 0.8745);fill-opacity:1;"/>
<path d="M13.9956 14.6377L13.9956 18.1377H13.1206L13.1206 19.0127H1.74561L1.74561 18.1377H0.870605L0.870605 14.6377H1.74561L1.74561 13.7627H2.62061L2.62061 12.8877H3.49561L3.49561 12.0127H5.24561L5.24561 12.8877H9.62061L9.62061 12.0127H11.3706L11.3706 12.8877H12.2456L12.2456 13.7627H13.1206L13.1206 14.6377H13.9956Z" fill="#58A9DF" style="fill:#58A9DF;fill:color(display-p3 0.3451 0.6627 0.8745);fill-opacity:1;"/>
</g>
<defs>
<clipPath id="clip0_1457_5719">
<rect width="21" height="21" fill="white" style="fill:white;fill-opacity:1;" transform="translate(0 0.63916)"/>
</clipPath>
<clipPath id="clip1_1457_5719">
<rect width="7" height="7" fill="white" style="fill:white;fill-opacity:1;" transform="translate(13.6538 4.13672)"/>
</clipPath>
</defs>
</svg>
