<svg width="22" height="22" viewBox="0 0 22 22" fill="none" xmlns="http://www.w3.org/2000/svg">
<path d="M20.9134 9.20201L20.9134 8.24201H19.9534L19.9534 4.40201H18.9934L18.9934 3.44201H18.0334L18.0334 2.48201H14.1934L14.1934 1.52201H13.2334L13.2334 0.562012H9.39342L9.39342 1.52201H8.43342L8.43342 2.48201H4.59342L4.59342 3.44201H3.63342L3.63342 4.40201H2.67342L2.67342 8.24201H1.71342L1.71342 9.20201H0.753418L0.753418 13.042H1.71342L1.71342 14.002H2.67342L2.67342 17.842H3.63342L3.63342 18.802H4.59342L4.59342 19.762H8.43342L8.43342 20.722H9.39342L9.39342 21.682H13.2334L13.2334 20.722H14.1934L14.1934 19.762H18.0334L18.0334 18.802H18.9934L18.9934 17.842H19.9534L19.9534 14.002H20.9134L20.9134 13.042H21.8734L21.8734 9.20201H20.9134ZM6.51342 10.162H7.47342L7.47342 9.20201H8.43342L8.43342 10.162H9.39342L9.39342 11.122H11.3134L11.3134 10.162H12.2734L12.2734 9.20201H13.2334L13.2334 8.24201H14.1934L14.1934 7.28201H15.1534L15.1534 8.24201H16.1134L16.1134 10.162H15.1534L15.1534 11.122H14.1934L14.1934 12.082H13.2334L13.2334 13.042H12.2734L12.2734 14.002H11.3134L11.3134 14.962H9.39342L9.39342 14.002H8.43342L8.43342 13.042H7.47342L7.47342 12.082H6.51342L6.51342 10.162Z" fill="#07E79D" style="fill:#07E79D;fill:color(display-p3 0.0290 0.9058 0.6168);fill-opacity:1;"/>
</svg>
